HIERARCHY
ROOT root
{
	OFFSET 0.000000 0.000000 0.000000
	CHANNELS 6 Xposition Yposition Zposition Zrotation Yrotation Xrotation
	JOINT lhip
	{
		OFFSET 0.058581 -0.082280 -0.017664
		CHANNELS 3 Zrotation Yrotation Xrotation
		JOINT lknee
		{
			OFFSET 0.043451 -0.386469 0.008037
			CHANNELS 3 Zrotation Yrotation Xrotation
			JOINT lankle
			{
				OFFSET -0.014790 -0.426874 -0.037428
				CHANNELS 3 Zrotation Yrotation Xrotation
				JOINT ltoe
				{
					OFFSET 0.041054 -0.060286 0.122042
					CHANNELS 3 Zrotation Yrotation Xrotation
					End Site
					{
						OFFSET 0.000000 0.000000 0.000000
					}
				}
			}
		}
	}
	JOINT rhip
	{
		OFFSET -0.060310 -0.090513 -0.013543
		CHANNELS 3 Zrotation Yrotation Xrotation
		JOINT rknee
		{
			OFFSET -0.043257 -0.383688 -0.004843
			CHANNELS 3 Zrotation Yrotation Xrotation
			JOINT rankle
			{
				OFFSET 0.019056 -0.420046 -0.034562
				CHANNELS 3 Zrotation Yrotation Xrotation
				JOINT rtoe
				{
					OFFSET -0.034840 -0.062106 0.130323
					CHANNELS 3 Zrotation Yrotation Xrotation
					End Site
					{
						OFFSET 0.000000 0.000000 0.000000
					}
				}
			}
		}
	}
	JOINT lowerback
	{
		OFFSET 0.004439 0.124404 -0.038385
		CHANNELS 3 Zrotation Yrotation Xrotation
		JOINT upperback
		{
			OFFSET 0.004488 0.137956 0.026820
			CHANNELS 3 Zrotation Yrotation Xrotation
			JOINT chest
			{
				OFFSET -0.002265 0.056032 0.002855
				CHANNELS 3 Zrotation Yrotation Xrotation
				JOINT lowerneck
				{
					OFFSET -0.013390 0.211636 -0.033468
					CHANNELS 3 Zrotation Yrotation Xrotation
					JOINT upperneck
					{
						OFFSET 0.010113 0.088937 0.050410
						CHANNELS 3 Zrotation Yrotation Xrotation
						End Site
						{
							OFFSET 0.000000 0.000000 0.000000
						}
					}
				}
				JOINT lclavicle
				{
					OFFSET 0.071702 0.114000 -0.018898
					CHANNELS 3 Zrotation Yrotation Xrotation
					JOINT lshoulder
					{
						OFFSET 0.122921 0.045205 -0.019046
						CHANNELS 3 Zrotation Yrotation Xrotation
						JOINT lelbow
						{
							OFFSET 0.255332 -0.015649 -0.022946
							CHANNELS 3 Zrotation Yrotation Xrotation
							JOINT lwrist
							{
								OFFSET 0.265709 0.012698 -0.007375
								CHANNELS 3 Zrotation Yrotation Xrotation
								End Site
								{
									OFFSET 0.000000 0.000000 0.000000
								}
							}
						}
					}
				}
				JOINT rclavicle
				{
					OFFSET -0.082954 0.112472 -0.023707
					CHANNELS 3 Zrotation Yrotation Xrotation
					JOINT rshoulder
					{
						OFFSET -0.113228 0.046853 -0.008472
						CHANNELS 3 Zrotation Yrotation Xrotation
						JOINT relbow
						{
							OFFSET -0.260127 -0.014369 -0.031269
							CHANNELS 3 Zrotation Yrotation Xrotation
							JOINT rwrist
							{
								OFFSET -0.269108 0.006794 -0.006027
								CHANNELS 3 Zrotation Yrotation Xrotation
								End Site
								{
									OFFSET 0.000000 0.000000 0.000000
								}
							}
						}
					}
				}
			}
		}
	}
}
MOTION
Frames: 8
Frame Time: 0.033333
0.061432 -0.244214 1.007548 -177.490821 2.325168 87.231209 10.009242 -0.653654 -25.130043 -6.397122 10.937812 64.577603 0.241784 6.939802 -3.287395 0.000000 -0.000000 0.000000 6.909149 -3.372481 -4.616164 6.163170 -5.007836 12.181412 -3.084342 -5.843522 -14.239773 0.000000 -0.000000 0.000000 -2.113554 5.652253 15.899672 1.865105 -1.331567 -3.653598 0.794195 -0.826912 -0.270826 4.206797 -1.042395 -7.793124 2.221684 -3.941876 11.414563 -26.327742 0.804487 -0.359831 -51.502983 -6.512961 4.289789 20.507273 -24.634036 -4.873766 3.161043 -1.896997 -4.515812 23.399707 4.687515 0.963117 47.360082 10.095861 11.898092 -5.608950 29.785885 15.466687 6.567292 2.776939 -1.779608 
0.061889 -0.218384 1.006522 -177.836534 1.890029 86.580110 9.326936 -1.465080 -29.407058 -6.222952 12.060883 59.451972 1.168905 7.037230 -6.288004 0.000000 -0.000000 0.000000 6.192262 -5.069561 -0.798564 6.377961 -3.641152 10.434964 -2.392137 -4.882090 -15.063774 0.000000 -0.000000 0.000000 -1.982104 7.164941 16.899556 1.565794 -2.027571 -4.085434 0.840662 -0.491751 0.300519 4.095207 -1.006667 -7.444882 1.879732 -4.272783 11.196733 -26.458639 0.498724 -0.681031 -51.620119 -6.246863 4.618807 20.015544 -25.224332 -3.878105 3.047592 -2.041563 -4.803088 23.021489 5.584629 0.866016 47.241025 11.228576 11.955240 -5.581505 29.870196 15.640854 5.991686 2.930539 -1.082139 
0.061939 -0.194323 1.004559 -178.541223 1.698768 86.698894 9.031452 -2.028822 -33.389921 -6.368090 12.866867 51.349404 2.102944 7.760800 -7.622032 0.000000 -0.000000 0.000000 5.598467 -6.648611 1.380298 6.525917 -2.142425 9.938625 -2.089130 -3.844373 -16.255347 0.000000 -0.000000 0.000000 -1.587775 8.250744 17.101646 1.187245 -2.387916 -4.137630 0.716928 -0.140155 0.486122 3.763057 -0.517187 -7.625602 1.697882 -4.582553 11.223096 -26.585129 0.329242 -1.130398 -51.899721 -5.848202 5.150704 19.738316 -25.433200 -3.068074 2.738053 -2.189568 -5.134248 22.705727 6.353291 0.948785 47.046751 12.491363 11.996922 -5.231435 29.968266 16.015999 6.407925 2.976291 -1.037368 
0.060202 -0.156714 1.000180 -179.053604 1.819766 86.783044 8.221208 -2.777493 -36.304591 -5.722686 11.964169 34.427130 2.502970 8.660622 -5.547033 0.000000 -0.000000 0.000000 5.516401 -6.000789 5.060280 6.668581 -1.472087 8.676737 -1.932013 -4.283171 -17.600927 0.000000 -0.000000 0.000000 -0.685164 8.580020 18.286713 0.674327 -2.488600 -5.211775 0.483516 0.342425 0.503006 3.419460 0.258103 -8.002317 1.230380 -5.404797 11.877506 -26.733248 0.663255 -1.659717 -52.173003 -5.244064 5.802465 19.303710 -25.303295 -2.142370 2.336539 -2.669776 -4.385951 22.453443 6.954109 0.831858 47.060414 13.814380 12.727105 -4.751241 30.405080 16.428464 4.961339 3.418984 -0.419819 
0.059721 -0.143924 0.997930 -179.304044 1.986208 87.035120 7.975004 -2.617006 -36.890097 -5.710458 10.880616 28.124515 2.243653 8.103817 -3.643551 0.000000 -0.000000 0.000000 5.409565 -6.558440 5.840708 6.843167 -1.019044 8.764273 -1.857556 -3.865008 -18.075626 0.000000 -0.000000 0.000000 -0.339806 8.724194 18.341977 0.495737 -2.516388 -5.392651 0.433163 0.471538 0.358318 3.125978 0.472004 -8.045952 1.193018 -5.605204 12.000606 -26.654502 0.788333 -1.730555 -52.436403 -5.060948 5.970070 19.259889 -25.142840 -1.946399 2.579677 -2.624183 -4.395717 22.395454 7.169144 0.967855 47.158224 14.087922 12.734996 -4.562861 30.663926 16.402948 4.625293 3.648858 -0.158183 
0.058493 -0.117840 0.992790 -179.879273 2.355718 87.674707 7.323755 -1.921846 -37.685737 -5.644938 7.542373 17.329153 1.059387 6.623210 -1.916325 0.000000 -0.000000 0.000000 5.175208 -7.907246 7.262456 6.881775 -0.061375 8.994444 -1.570249 -2.580537 -19.086828 0.000000 -0.000000 0.000000 0.263825 8.966081 18.368722 0.214125 -2.655545 -5.804418 0.327425 0.770600 0.044561 2.814947 1.206216 -8.248772 1.194066 -5.926911 12.199134 -26.448814 1.153999 -2.101579 -52.920851 -4.557886 6.123945 19.046242 -24.740854 -1.468179 2.432564 -2.378274 -4.400068 22.135534 7.389049 0.967924 47.556833 14.507796 12.814012 -3.885147 31.249008 17.327343 5.188712 3.867617 -0.297373 
0.057228 -0.090324 0.987118 179.293176 2.599267 88.338227 6.572502 -0.803167 -38.589117 -5.216035 5.252048 10.933384 0.286091 5.096757 -0.165763 0.000000 -0.000000 0.000000 4.898437 -8.545606 8.289757 6.763653 0.842439 10.029047 -1.405252 -2.009251 -19.968702 0.000000 -0.000000 0.000000 0.526930 9.224072 18.058618 -0.009606 -2.545589 -6.227964 0.233601 0.986912 0.027639 2.660244 1.526246 -8.557558 1.135017 -5.830303 12.446480 -26.438665 1.445260 -2.311248 -53.044355 -4.279510 6.201377 18.737634 -23.963193 -1.291372 3.268726 -2.455571 -4.366363 22.137351 7.569761 0.941741 47.812232 14.658836 13.296953 -3.127844 31.646342 17.842939 4.766992 4.321899 -0.466660 
0.055486 -0.060422 0.982090 178.208087 2.564895 88.837490 6.375757 -1.342049 -38.944916 -5.161543 4.758564 9.583419 0.348503 5.191262 -0.307912 0.000000 -0.000000 0.000000 4.507657 -8.001172 9.530569 6.596673 1.983155 11.287515 -0.710977 -1.841957 -20.717189 0.000000 -0.000000 0.000000 0.213642 9.565526 17.495867 -0.011494 -2.370389 -6.331581 0.169207 1.231943 -0.050554 2.703941 2.067728 -8.901641 0.911613 -5.717781 12.793739 -26.486098 1.842318 -2.536604 -53.069795 -3.954980 6.313787 18.546912 -23.174467 -1.407884 3.991243 -2.417249 -4.355220 22.484734 7.383194 0.917233 48.054470 14.609447 13.983562 -2.612604 32.014262 18.026787 3.745416 4.509212 -0.255938 
